<?xml version="1.0" encoding="utf-8"?>
<svg viewBox="256 256" xmlns="http://www.w3.org/2000/svg">
  <defs>
    <view id="view-1" viewBox="402.323 231.76 1.153 21.322">
      <title>View 1</title>
    </view>
    <view id="view-2" viewBox="264.016 489.934 2.305 22.475">
      <title>View 2</title>
    </view>
  </defs>
  <g transform="matrix(8.347569, 0, 0, 8.083443, 344.083649, -8056.177246)" style="">
    <path d="m12 0c-4.4183 2.3685e-15 -8 3.5817-8 8 0 1.421 0.3816 2.75 1.0312 3.906 0.1079 0.192 0.221 0.381 0.3438 0.563l6.625 11.531 6.625-11.531c0.102-0.151 0.19-0.311 0.281-0.469l0.063-0.094c0.649-1.156 1.031-2.485 1.031-3.906 0-4.4183-3.582-8-8-8zm0 4c2.209 0 4 1.7909 4 4 0 2.209-1.791 4-4 4-2.2091 0-4-1.791-4-4 0-2.2091 1.7909-4 4-4z" transform="translate(0 1028.4)" fill="#e74c3c"/>
    <path d="m12 3c-2.7614 0-5 2.2386-5 5 0 2.761 2.2386 5 5 5 2.761 0 5-2.239 5-5 0-2.7614-2.239-5-5-5zm0 2c1.657 0 3 1.3431 3 3s-1.343 3-3 3-3-1.3431-3-3 1.343-3 3-3z" transform="translate(0 1028.4)" fill="#c0392b"/>
  </g>
  <g transform="matrix(6.798818, 0, 0, 6.690765, 229.312439, -6551.980469)" style="">
    <path d="m12 0c-4.4183 2.3685e-15 -8 3.5817-8 8 0 1.421 0.3816 2.75 1.0312 3.906 0.1079 0.192 0.221 0.381 0.3438 0.563l6.625 11.531 6.625-11.531c0.102-0.151 0.19-0.311 0.281-0.469l0.063-0.094c0.649-1.156 1.031-2.485 1.031-3.906 0-4.4183-3.582-8-8-8zm0 4c2.209 0 4 1.7909 4 4 0 2.209-1.791 4-4 4-2.2091 0-4-1.791-4-4 0-2.2091 1.7909-4 4-4z" transform="translate(0 1028.4)" fill="#46d454" id="id_103"/>
    <path d="m12 3c-2.7614 0-5 2.2386-5 5 0 2.761 2.2386 5 5 5 2.761 0 5-2.239 5-5 0-2.7614-2.239-5-5-5zm0 2c1.657 0 3 1.3431 3 3s-1.343 3-3 3-3-1.3431-3-3 1.343-3 3-3z" transform="translate(0 1028.4)" fill="#3f9e49" id="id_104"/>
  </g>
  <path d="M 312.424 493.478 C 312.424 493.478 355.285 525.478 368.424 488.44 C 381.562 451.4 408.413 479.323 408.413 478.753 C 408.413 478.184 451.258 507.763 444.974 453.628" style="fill: none; stroke: rgb(0, 0, 0); stroke-width: 6; stroke-dasharray: 20 10; stroke-linecap: round; stroke-dashoffset: 0; stroke-linejoin: round; stroke-miterlimit: 4; fill: none; fill-rule: nonzero; opacity: 1;&quot; vector-effect=&quot;non-scaling-stroke&quot;; stroke-linecap=&quot;round&quot;"/>
</svg>